<svg xmlns="http://www.w3.org/2000/svg" width="15px" height="15px" viewBox="0 0 256 256">
    <!-- Background -->
    <rect width="256" height="256" fill="#FFFFFF"/>

    <!-- Axes -->
    <line x1="10" y1="10" x2="10" y2="246" stroke="#000" stroke-width="2"/>
    <line x1="10" y1="246" x2="246" y2="246" stroke="#000" stroke-width="2"/>

    <!-- Bars representing sales (you can adjust heights as needed) -->
    <rect x="20" y="146" width="20" height="100" fill="#000"/>
    <rect x="60" y="96" width="20" height="150" fill="#000"/>
    <rect x="100" y="176" width="20" height="70" fill="#000"/>
    <rect x="140" y="46" width="20" height="200" fill="#000"/>
    <rect x="180" y="116" width="20" height="130" fill="#000"/>

    <!-- Sales numbers at the top of bars for clarity -->
    <text x="20" y="140" font-family="Arial" font-size="12" fill="#000">100</text>
    <text x="60" y="90" font-family="Arial" font-size="12" fill="#000">150</text>
    <text x="100" y="170" font-family="Arial" font-size="12" fill="#000">70</text>
    <text x="140" y="40" font-family="Arial" font-size="12" fill="#000">200</text>
    <text x="180" y="110" font-family="Arial" font-size="12" fill="#000">130</text>

    <!-- X-Axis labels -->
    <!-- <text x="20" y="260" font-family="Arial" font-size="12" fill="#000">Jan</text>
    <text x="60" y="260" font-family="Arial" font-size="12" fill="#000">Feb</text>
    <text x="100" y="260" font-family="Arial" font-size="12" fill="#000">Mar</text>
    <text x="140" y="260" font-family="Arial" font-size="12" fill="#000">Apr</text>
    <text x="180" y -->

    <!-- Y-Axis labels -->
    <text x="0" y="250" font-family="Arial" font-size="12" fill="#000">0</text>
    <text x="0" y="200" font-family="Arial" font-size="12" fill="#000">50</text>
    <text x="0" y="150" font-family="Arial" font-size="12" fill="#000">100</text>
    <text x="0" y="100" font-family="Arial" font-size="12" fill="#000">150</text>
    <text x="0" y="50" font-family="Arial" font-size="12" fill="#000">200</text>
    <text x="0" y="0" font-family="Arial" font-size="12" fill="#000">250</text>

    <!-- Title -->
    <text x="100" y="20" font-family="Arial" font-size="16" fill="#000">Sales</text>
</svg>
